# Rhino

mtllib pen_cavity_out.mtl
usemtl diffuse_190_190_190_255
v -87 25 0
v -87 25 22
v -87 -25 0
v -87 -25 22
v -87 0 0
v -87 -8.3333330154418945 22
v -87 8.3333330154418945 22
v -87 -25 0
v -87 -25 22
v 0.5 -25 22
v 88 -25 0
v 88 -25 22
v -28.666666030883789 -25 0
v 29.666666030883789 -25 0
v 70.5 -25 22
v 53 -25 22
v 35.5 -25 22
v 18 -25 22
v -17 -25 22
v -34.5 -25 22
v -52 -25 22
v -69.5 -25 22
v 88 -25 0
v 88 -25 22
v 88 25 0
v 88 25 22
v 88 0 0
v 88 8.3333330154418945 22
v 88 -8.3333330154418945 22
v 88 25 0
v 88 25 22
v 0.5 25 22
v -87 25 0
v -87 25 22
v 29.666666030883789 25 0
v -28.666666030883789 25 0
v -69.5 25 22
v -52 25 22
v -34.5 25 22
v -17 25 22
v 18 25 22
v 35.5 25 22
v 53 25 22
v 70.5 25 22
v -87 25 0
v 88 25 0
v -87 -25 0
v 88 -25 0
v -87 0 0
v 88 0 0
v -28.666666030883789 -25 0
v 29.666666030883789 -25 0
v 29.666666030883789 25 0
v -28.666666030883789 25 0
v -87 25 22
v 88 25 22
v -87 -25 22
v 88 -25 22
v -87 8.3333330154418945 22
v -87 -8.3333330154418945 22
v -69.5 -25 22
v -52 -25 22
v -34.5 -25 22
v -17 -25 22
v 0.5 -25 22
v 18 -25 22
v 35.5 -25 22
v 53 -25 22
v 70.5 -25 22
v 88 -8.3333330154418945 22
v 88 8.3333330154418945 22
v 70.5 25 22
v 53 25 22
v 35.5 25 22
v 18 25 22
v 0.5 25 22
v -17 25 22
v -34.5 25 22
v -52 25 22
v -69.5 25 22
v -85 -23 22
v -85 -7.6666665077209473 22
v -85 7.6666665077209473 22
v -85 23 22
v 86 -23 22
v 68.900001525878906 -23 22
v 51.799999237060547 -23 22
v 34.700000762939453 -23 22
v 17.600000381469727 -23 22
v 0.5 -23 22
v -16.600000381469727 -23 22
v -33.700000762939453 -23 22
v -50.799999237060547 -23 22
v -67.900001525878906 -23 22
v 86 23 22
v 86 7.6666665077209473 22
v 86 -7.6666665077209473 22
v -67.900001525878906 23 22
v -50.799999237060547 23 22
v -33.700000762939453 23 22
v -16.600000381469727 23 22
v 0.5 23 22
v 17.600000381469727 23 22
v 34.700000762939453 23 22
v 51.799999237060547 23 22
v 68.900001525878906 23 22
v -85 23 2
v -85 23 22
v -85 -23 2
v -85 -23 22
v -85 0 2
v -85 -7.6666665077209473 22
v -85 7.6666665077209473 22
v -85 -23 2
v -85 -23 22
v 0.5 -23 22
v 86 -23 2
v 86 -23 22
v -28 -23 2
v 29 -23 2
v 68.900001525878906 -23 22
v 51.799999237060547 -23 22
v 34.700000762939453 -23 22
v 17.600000381469727 -23 22
v -16.600000381469727 -23 22
v -33.700000762939453 -23 22
v -50.799999237060547 -23 22
v -67.900001525878906 -23 22
v 86 -23 2
v 86 -23 22
v 86 23 2
v 86 23 22
v 86 0 2
v 86 7.6666665077209473 22
v 86 -7.6666665077209473 22
v 86 23 2
v 86 23 22
v 0.5 23 22
v -85 23 2
v -85 23 22
v 29 23 2
v -28 23 2
v -67.900001525878906 23 22
v -50.799999237060547 23 22
v -33.700000762939453 23 22
v -16.600000381469727 23 22
v 17.600000381469727 23 22
v 34.700000762939453 23 22
v 51.799999237060547 23 22
v 68.900001525878906 23 22
v -85 23 2
v 86 23 2
v -85 -23 2
v 86 -23 2
v -85 0 2
v 86 0 2
v -28 -23 2
v 29 -23 2
v 29 23 2
v -28 23 2
vt 0.37391304969787598 0.77898550033569336
vt 0.37391304969787598 0.8746376633644104
vt 0.58983951807022095 0.77898550033569336
vt 0.58983951807022095 0.8746376633644104
vt 0.48187628388404846 0.77898550033569336
vt 0.51786404848098755 0.8746376633644104
vt 0.44588851928710938 0.8746376633644104
vt 0.78114384412765503 0.21739129722118378
vt 0.68695652484893799 0.21739129722118378
vt 0.68695652484893799 0.59709364175796509
vt 0.78114384412765503 0.97679603099822998
vt 0.68695652484893799 0.97679603099822998
vt 0.78114384412765503 0.47052621841430664
vt 0.78114384412765503 0.72366112470626831
vt 0.68695652484893799 0.90085554122924805
vt 0.68695652484893799 0.82491511106491089
vt 0.68695652484893799 0.74897462129592896
vt 0.68695652484893799 0.67303413152694702
vt 0.68695652484893799 0.52115321159362793
vt 0.68695652484893799 0.445212721824646
vt 0.68695652484893799 0.36927226185798645
vt 0.68695652484893799 0.29333177208900452
vt 0.37391304969787598 0.57971012592315674
vt 0.37391304969787598 0.67536234855651855
vt 0.58983951807022095 0.57971012592315674
vt 0.58983951807022095 0.67536234855651855
vt 0.48187628388404846 0.57971012592315674
vt 0.51786404848098755 0.67536234855651855
vt 0.44588851928710938 0.67536234855651855
vt 0.68549168109893799 0.21739129722118378
vt 0.59130436182022095 0.21739129722118378
vt 0.59130436182022095 0.59709364175796509
vt 0.68549168109893799 0.97679603099822998
vt 0.59130436182022095 0.97679603099822998
vt 0.68549168109893799 0.47052621841430664
vt 0.68549168109893799 0.72366112470626831
vt 0.59130436182022095 0.90085554122924805
vt 0.59130436182022095 0.82491511106491089
vt 0.59130436182022095 0.74897462129592896
vt 0.59130436182022095 0.67303413152694702
vt 0.59130436182022095 0.52115321159362793
vt 0.59130436182022095 0.445212721824646
vt 0.59130436182022095 0.36927226185798645
vt 0.59130436182022095 0.29333177208900452
vt 0.78260868787765503 0
vt 0.78260868787765503 0.76086956262588501
vt 0.99853515625 0
vt 0.99853515625 0.76086956262588501
vt 0.8905719518661499 0
vt 0.8905719518661499 0.76086956262588501
vt 0.99853515625 0.25362318754196167
vt 0.99853515625 0.50724637508392334
vt 0.78260868787765503 0.50724637508392334
vt 0.78260868787765503 0.25362318754196167
vt 0.76086956262588501 0
vt 0 0
vt 0.76086956262588501 0.21592645347118378
vt 0 0.21592645347118378
vt 0.76086956262588501 0.071975491940975189
vt 0.76086956262588501 0.14395098388195038
vt 0.68478262424468994 0.21592645347118378
vt 0.6086956262588501 0.21592645347118378
vt 0.53260868787765503 0.21592645347118378
vt 0.45652174949645996 0.21592645347118378
vt 0.3804347813129425 0.21592645347118378
vt 0.30434781312942505 0.21592645347118378
vt 0.22826087474822998 0.21592645347118378
vt 0.15217390656471252 0.21592645347118378
vt 0.076086975634098053 0.21592645347118378
vt 0 0.14395098388195038
vt 0 0.071975491940975189
vt 0.076086975634098053 0
vt 0.15217390656471252 0
vt 0.22826087474822998 0
vt 0.30434781312942505 0
vt 0.3804347813129425 0
vt 0.45652174949645996 0
vt 0.53260868787765503 0
vt 0.6086956262588501 0
vt 0.68478262424468994 0
vt 0.75217390060424805 0.20728939771652222
vt 0.75217390060424805 0.14107194542884827
vt 0.75217390060424805 0.07485450804233551
vt 0.75217390060424805 0.0086370585486292839
vt 0.0086956694722175598 0.20728939771652222
vt 0.083043463528156281 0.20728939771652222
vt 0.15739130973815918 0.20728939771652222
vt 0.23173914849758148 0.20728939771652222
vt 0.30608692765235901 0.20728939771652222
vt 0.3804347813129425 0.20728939771652222
vt 0.45478260517120361 0.20728939771652222
vt 0.52913045883178711 0.20728939771652222
vt 0.60347825288772583 0.20728939771652222
vt 0.67782610654830933 0.20728939771652222
vt 0.0086956694722175598 0.0086370585486292839
vt 0.0086956694722175598 0.07485450804233551
vt 0.0086956694722175598 0.14107194542884827
vt 0.67782610654830933 0.0086370585486292839
vt 0.60347825288772583 0.0086370585486292839
vt 0.52913045883178711 0.0086370585486292839
vt 0.45478260517120361 0.0086370585486292839
vt 0.3804347813129425 0.0086370585486292839
vt 0.30608692765235901 0.0086370585486292839
vt 0.23173914849758148 0.0086370585486292839
vt 0.15739130973815918 0.0086370585486292839
vt 0.083043463528156281 0.0086370585486292839
vt 0.37391304969787598 0.39855071902275085
vt 0.37391304969787598 0.48550724983215332
vt 0.57391303777694702 0.39855071902275085
vt 0.57391303777694702 0.48550724983215332
vt 0.4739130437374115 0.39855071902275085
vt 0.50724637508392334 0.48550724983215332
vt 0.44057971239089966 0.48550724983215332
vt 0.17244820296764374 0.21739129722118378
vt 0.086956523358821869 0.21739129722118378
vt 0.086956523358821869 0.5891304612159729
vt 0.17244820296764374 0.96086955070495605
vt 0.086956523358821869 0.96086955070495605
vt 0.17244820296764374 0.46521741151809692
vt 0.17244820296764374 0.71304351091384888
vt 0.086956523358821869 0.88652169704437256
vt 0.086956523358821869 0.81217390298843384
vt 0.086956523358821869 0.73782604932785034
vt 0.086956523358821869 0.66347825527191162
vt 0.086956523358821869 0.5147826075553894
vt 0.086956523358821869 0.4404347836971283
vt 0.086956523358821869 0.36608695983886719
vt 0.086956523358821869 0.29173913598060608
vt 0.37391304969787598 0.21739129722118378
vt 0.37391304969787598 0.30434781312942505
vt 0.57391303777694702 0.21739129722118378
vt 0.57391303777694702 0.30434781312942505
vt 0.4739130437374115 0.21739129722118378
vt 0.50724637508392334 0.30434781312942505
vt 0.44057971239089966 0.30434781312942505
vt 0.085491679608821869 0.21739129722118378
vt 0 0.21739129722118378
vt 0 0.5891304612159729
vt 0.085491679608821869 0.96086955070495605
vt 0 0.96086955070495605
vt 0.085491679608821869 0.46521741151809692
vt 0.085491679608821869 0.71304351091384888
vt 0 0.88652169704437256
vt 0 0.81217390298843384
vt 0 0.73782604932785034
vt 0 0.66347825527191162
vt 0 0.5147826075553894
vt 0 0.4404347836971283
vt 0 0.36608695983886719
vt 0 0.29173913598060608
vt 0.17391304671764374 0.21739129722118378
vt 0.17391304671764374 0.96086955070495605
vt 0.37244820594787598 0.21739129722118378
vt 0.37244820594787598 0.96086955070495605
vt 0.27318063378334045 0.21739129722118378
vt 0.27318063378334045 0.96086955070495605
vt 0.37244820594787598 0.46521741151809692
vt 0.37244820594787598 0.71304351091384888
vt 0.17391304671764374 0.71304351091384888
vt 0.17391304671764374 0.46521741151809692
vn -1 0 0
vn -1 0 0
vn -1 0 0
vn -1 0 0
vn -1 0 0
vn -1 0 0
vn -1 0 0
vn 0 -1 0
vn 0 -1 0
vn 0 -1 0
vn 0 -1 0
vn 0 -1 0
vn 0 -1 0
vn 0 -1 0
vn 0 -1 0
vn 0 -1 0
vn 0 -1 0
vn 0 -1 0
vn 0 -1 0
vn 0 -1 0
vn 0 -1 0
vn 0 -1 0
vn 1 0 0
vn 1 0 0
vn 1 0 0
vn 1 0 0
vn 1 0 0
vn 1 0 0
vn 1 0 0
vn 0 1 0
vn 0 1 0
vn 0 1 0
vn 0 1 0
vn 0 1 0
vn 0 1 0
vn 0 1 0
vn 0 1 0
vn 0 1 0
vn 0 1 0
vn 0 1 0
vn 0 1 0
vn 0 1 0
vn 0 1 0
vn 0 1 0
vn 0 0 -1
vn 0 0 -1
vn 0 0 -1
vn 0 0 -1
vn 0 0 -1
vn 0 0 -1
vn 0 0 -1
vn 0 0 -1
vn 0 0 -1
vn 0 0 -1
vn 0 0 1
vn 0 0 1
vn 0 0 1
vn 0 0 1
vn 0 0 1
vn 0 0 1
vn 0 0 1
vn 0 0 1
vn 0 0 1
vn 0 0 1
vn 0 0 1
vn 0 0 1
vn 0 0 1
vn 0 0 1
vn 0 0 1
vn 0 0 1
vn 0 0 1
vn 0 0 1
vn 0 0 1
vn 0 0 1
vn 0 0 1
vn 0 0 1
vn 0 0 1
vn 0 0 1
vn 0 0 1
vn 0 0 1
vn 0 0 1
vn 0 0 1
vn 0 0 1
vn 0 0 1
vn 0 0 1
vn 0 0 1
vn 0 0 1
vn 0 0 1
vn 0 0 1
vn 0 0 1
vn 0 0 1
vn 0 0 1
vn 0 0 1
vn 0 0 1
vn 0 0 1
vn 0 0 1
vn 0 0 1
vn 0 0 1
vn 0 0 1
vn 0 0 1
vn 0 0 1
vn 0 0 1
vn 0 0 1
vn 0 0 1
vn 0 0 1
vn 0 0 1
vn 1 0 0
vn 1 0 0
vn 1 0 0
vn 1 0 0
vn 1 0 0
vn 1 0 0
vn 1 0 0
vn 0 1 0
vn 0 1 0
vn 0 1 0
vn 0 1 0
vn 0 1 0
vn 0 1 0
vn 0 1 0
vn 0 1 0
vn 0 1 0
vn 0 1 0
vn 0 1 0
vn 0 1 0
vn 0 1 0
vn 0 1 0
vn 0 1 0
vn -1 0 0
vn -1 0 0
vn -1 0 0
vn -1 0 0
vn -1 0 0
vn -1 0 0
vn -1 0 0
vn 0 -1 0
vn 0 -1 0
vn 0 -1 0
vn 0 -1 0
vn 0 -1 0
vn 0 -1 0
vn 0 -1 0
vn 0 -1 0
vn 0 -1 0
vn 0 -1 0
vn 0 -1 0
vn 0 -1 0
vn 0 -1 0
vn 0 -1 0
vn 0 -1 0
vn 0 0 1
vn 0 0 1
vn 0 0 1
vn 0 0 1
vn 0 0 1
vn 0 0 1
vn 0 0 1
vn 0 0 1
vn 0 0 1
vn 0 0 1
f 2/2/2 1/1/1 7/7/7
f 5/5/5 7/7/7 1/1/1
f 5/5/5 3/3/3 4/4/4 6/6/6
f 7/7/7 5/5/5 6/6/6
f 22/22/22 9/9/9 8/8/8
f 8/8/8 13/13/13 21/21/21 22/22/22
f 13/13/13 19/19/19 20/20/20
f 20/20/20 21/21/21 13/13/13
f 19/19/19 13/13/13 10/10/10
f 14/14/14 18/18/18 10/10/10
f 17/17/17 18/18/18 14/14/14
f 14/14/14 10/10/10 13/13/13
f 14/14/14 11/11/11 15/15/15 16/16/16
f 14/14/14 16/16/16 17/17/17
f 11/11/11 12/12/12 15/15/15
f 29/29/29 24/24/24 23/23/23 27/27/27
f 27/27/27 25/25/25 26/26/26 28/28/28
f 29/29/29 27/27/27 28/28/28
f 44/44/44 31/31/31 30/30/30
f 30/30/30 35/35/35 43/43/43 44/44/44
f 35/35/35 41/41/41 42/42/42
f 42/42/42 43/43/43 35/35/35
f 41/41/41 35/35/35 32/32/32
f 36/36/36 40/40/40 32/32/32
f 39/39/39 40/40/40 36/36/36
f 36/36/36 32/32/32 35/35/35
f 36/36/36 33/33/33 37/37/37 38/38/38
f 36/36/36 38/38/38 39/39/39
f 33/33/33 34/34/34 37/37/37
f 54/54/54 49/49/49 45/45/45
f 49/49/49 54/54/54 53/53/53
f 53/53/53 46/46/46 50/50/50
f 50/50/50 49/49/49 53/53/53
f 50/50/50 52/52/52 51/51/51 49/49/49
f 48/48/48 52/52/52 50/50/50
f 47/47/47 49/49/49 51/51/51
f 80/80/80 55/55/55 84/84/84 98/98/98
f 79/79/79 80/80/80 98/98/98 99/99/99
f 77/77/77 78/78/78 100/100/100 101/101/101
f 76/76/76 77/77/77 101/101/101 102/102/102
f 78/78/78 79/79/79 99/99/99 100/100/100
f 83/83/83 84/84/84 55/55/55 59/59/59
f 59/59/59 60/60/60 82/82/82 83/83/83
f 74/74/74 75/75/75 103/103/103 104/104/104
f 102/102/102 103/103/103 75/75/75 76/76/76
f 73/73/73 74/74/74 104/104/104 105/105/105
f 72/72/72 73/73/73 105/105/105 106/106/106
f 56/56/56 72/72/72 106/106/106 95/95/95
f 96/96/96 97/97/97 70/70/70 71/71/71
f 95/95/95 96/96/96 71/71/71 56/56/56
f 81/81/81 82/82/82 60/60/60 57/57/57
f 93/93/93 94/94/94 61/61/61 62/62/62
f 92/92/92 93/93/93 62/62/62 63/63/63
f 94/94/94 81/81/81 57/57/57 61/61/61
f 90/90/90 91/91/91 64/64/64 65/65/65
f 91/91/91 92/92/92 63/63/63 64/64/64
f 88/88/88 89/89/89 66/66/66 67/67/67
f 87/87/87 88/88/88 67/67/67 68/68/68
f 97/97/97 85/85/85 58/58/58 70/70/70
f 86/86/86 87/87/87 68/68/68 69/69/69
f 85/85/85 86/86/86 69/69/69 58/58/58
f 65/65/65 66/66/66 89/89/89 90/90/90
f 108/108/108 113/113/113 107/107/107
f 111/111/111 107/107/107 113/113/113
f 111/111/111 112/112/112 110/110/110 109/109/109
f 113/113/113 112/112/112 111/111/111
f 128/128/128 114/114/114 115/115/115
f 114/114/114 128/128/128 127/127/127 119/119/119
f 119/119/119 126/126/126 125/125/125
f 126/126/126 119/119/119 127/127/127
f 125/125/125 116/116/116 119/119/119
f 120/120/120 116/116/116 124/124/124
f 123/123/123 120/120/120 124/124/124
f 120/120/120 119/119/119 116/116/116
f 120/120/120 122/122/122 121/121/121 117/117/117
f 120/120/120 123/123/123 122/122/122
f 117/117/117 121/121/121 118/118/118
f 135/135/135 133/133/133 129/129/129 130/130/130
f 133/133/133 134/134/134 132/132/132 131/131/131
f 135/135/135 134/134/134 133/133/133
f 150/150/150 136/136/136 137/137/137
f 136/136/136 150/150/150 149/149/149 141/141/141
f 141/141/141 148/148/148 147/147/147
f 148/148/148 141/141/141 149/149/149
f 147/147/147 138/138/138 141/141/141
f 142/142/142 138/138/138 146/146/146
f 145/145/145 142/142/142 146/146/146
f 142/142/142 141/141/141 138/138/138
f 142/142/142 144/144/144 143/143/143 139/139/139
f 142/142/142 145/145/145 144/144/144
f 139/139/139 143/143/143 140/140/140
f 160/160/160 151/151/151 155/155/155
f 155/155/155 159/159/159 160/160/160
f 159/159/159 156/156/156 152/152/152
f 156/156/156 159/159/159 155/155/155
f 156/156/156 155/155/155 157/157/157 158/158/158
f 154/154/154 156/156/156 158/158/158
f 153/153/153 157/157/157 155/155/155
